# xmcd
#
# Track frame offsets:
#	150
#	12991
#	26365
#	44117
#	56137
#	69528
#	82977
#	97887
#	115296
#	127338
#	140402
#	151900
#	164385
#	178229
#	191031
#	203015
#	218525
#
# Disc length: 3048 seconds
#
# Revision: 0
# Processed by: cddbd v1.5.2PL0 Copyright (c) Steve Scherf et al.
# Submitted via: EasyCDDAExtractor 16.0.6.1
#
DISCID=f20be611
DTITLE=Varios - C-082 Transit-Music Country Internet Nº 6
DYEAR=1900
DGENRE=
TTITLE0=Alabama - Song Of South
TTITLE1=Alabama - High Cotton
TTITLE2=Trisha Yearwood - She's In Love With The Boy
TTITLE3=Alan Jackson - Dallas
TTITLE4=Alan Jackson - Pop A Top
TTITLE5=Texas Country - Another Yellow Rose Of Texas
TTITLE6=Bellamy Brothers - Redneck Girl
TTITLE7=Llist Records - Big Rigs
TTITLE8=Texas Country - Gabes Horn
TTITLE9=Texas Country - Heartache County
TTITLE10=Alan Jackson - Little Bitty
TTITLE11=Texas Country - Two Timmin Two Steeping Cowboy
TTITLE12=Faith Hill - Let's Go To Vegas
TTITLE13=Llist Records - Hopeless
TTITLE14=Faith Hill - Wild One
TTITLE15="Pork And The Louisiana Ducks - Louisiana Barbecue
TTITLE16=Desconocido - El Corazón de texas
EXTD=
EXTT0=
EXTT1=
EXTT2=
EXTT3=
EXTT4=
EXTT5=
EXTT6=
EXTT7=
EXTT8=
EXTT9=
EXTT10=
EXTT11=
EXTT12=
EXTT13=
EXTT14=
EXTT15=
EXTT16=
PLAYORDER=
